<svg xmlns="http://www.w3.org/2000/svg" width="411" height="71">
    <defs>
        <style>
            .cls-1{fill:#fff}.cls-2{fill:#78e6d0}
        </style>
    </defs>
    <g id="logo-white" transform="translate(.004)">
        <path id="Path_597" data-name="Path 597" class="cls-1" d="M206.552 444.266v4.219a1.06 1.06 0 0 0 1.1 1.2h.88v1.368h-1.223a2.223 2.223 0 0 1-2.463-2.369v-4.418h-1.322v-1.308h1.322v-2.238h1.705v2.239h2v1.308z" transform="translate(-118.773 -383.863)"/>
        <path id="Path_598" data-name="Path 598" class="cls-1" d="M216.6 446.262v4.922h-1.659v-4.676c0-1.56-.818-2.095-1.842-2.095a1.889 1.889 0 0 0-1.949 2.11v4.662h-1.66v-11.741h1.664v4.8a2.755 2.755 0 0 1 2.431-1.306c1.757 0 3.019 1.116 3.019 3.328" transform="translate(-118.254 -383.994)"/>
        <path id="Path_599" data-name="Path 599" class="cls-1" d="M225.793 447.054h-6.781a2.608 2.608 0 0 0 2.645 2.536 2.641 2.641 0 0 0 2.286-1.254l1.384.589a4.031 4.031 0 0 1-3.662 2.087 4.2 4.2 0 1 1-.037-8.408 4.093 4.093 0 0 1 4.182 4.114zm-6.681-1.162h4.944a2.383 2.383 0 0 0-2.422-1.934 2.536 2.536 0 0 0-2.523 1.934" transform="translate(-117.585 -383.67)"/>
        <path id="Path_600" data-name="Path 600" class="cls-1" d="M242.072 445.324v5.534h-1.7v-5c0-1.261-.688-1.751-1.529-1.751-.962 0-1.613.634-1.613 1.812v4.937h-1.7v-5c0-1.261-.68-1.751-1.528-1.751-.971 0-1.6.634-1.6 1.812v4.937h-1.712v-8.1h1.71v1.131a2.578 2.578 0 0 1 2.293-1.285 2.3 2.3 0 0 1 2.247 1.285 2.754 2.754 0 0 1 2.385-1.285 2.591 2.591 0 0 1 2.752 2.714" transform="translate(-116.402 -383.667)"/>
        <path id="Path_601" data-name="Path 601" class="cls-1" d="M242.441 446.8a4.09 4.09 0 0 1 4-4.189 3.6 3.6 0 0 1 2.927 1.331v-1.178h1.7v8.094h-1.7v-1.178a3.6 3.6 0 0 1-2.919 1.331 4.106 4.106 0 0 1-4-4.212m7.032 0a2.668 2.668 0 1 0-2.659 2.7 2.624 2.624 0 0 0 2.659-2.7" transform="translate(-115.357 -383.669)"/>
        <path id="Path_602" data-name="Path 602" class="cls-1" d="M256.788 442.682v1.629c-1.652 0-2.759.6-2.759 2.393v4.15h-1.705v-8.1h1.659v1.446a3.278 3.278 0 0 1 2.805-1.514" transform="translate(-114.469 -383.662)"/>
        <path id="Path_603" data-name="Path 603" class="cls-1" d="m262.876 451.184-3.652-4.02v4.02h-1.7v-11.74h1.7v7.139l3.2-3.493h2.148l-3.555 3.73 4.076 4.364z" transform="translate(-114.025 -383.994)"/>
        <path id="Path_604" data-name="Path 604" class="cls-1" d="M272.832 447.054h-6.781a2.608 2.608 0 0 0 2.645 2.536 2.641 2.641 0 0 0 2.286-1.254l1.384.589a4.031 4.031 0 0 1-3.662 2.087 4.2 4.2 0 1 1-.037-8.408 4.095 4.095 0 0 1 4.181 4.113zm-6.681-1.162h4.949a2.383 2.383 0 0 0-2.422-1.934 2.536 2.536 0 0 0-2.523 1.934" transform="translate(-113.444 -383.67)"/>
        <path id="Path_605" data-name="Path 605" class="cls-1" d="M275.521 444.266v4.219a1.061 1.061 0 0 0 1.1 1.2h.88v1.368h-1.223a2.223 2.223 0 0 1-2.463-2.369v-4.418h-1.322v-1.308h1.322v-2.238h1.705v2.239h2v1.308z" transform="translate(-112.694 -383.863)"/>
        <path id="Path_606" data-name="Path 606" class="cls-1" d="M278.456 442.765h1.7v1.189a3.608 3.608 0 0 1 2.912-1.339 4.205 4.205 0 0 1 0 8.4 3.6 3.6 0 0 1-2.912-1.331v4.984h-1.7zm6.925 4.051a2.642 2.642 0 1 0-.763 1.914 2.668 2.668 0 0 0 .763-1.914" transform="translate(-112.187 -383.67)"/>
        <path id="Rectangle_1311" data-name="Rectangle 1311" class="cls-1" transform="translate(176.498 55.45)" d="M0 0h1.705v11.74H0z"/>
        <path id="Path_607" data-name="Path 607" class="cls-1" d="M290.918 446.8a4.09 4.09 0 0 1 4-4.189 3.6 3.6 0 0 1 2.927 1.331v-1.178h1.7v8.094h-1.7v-1.178a3.6 3.6 0 0 1-2.919 1.331 4.106 4.106 0 0 1-4-4.212m7.032 0a2.668 2.668 0 1 0-2.659 2.7 2.624 2.624 0 0 0 2.659-2.7" transform="translate(-111.09 -383.669)"/>
        <path id="Path_608" data-name="Path 608" class="cls-1" d="M300.26 446.808a4.2 4.2 0 0 1 4.327-4.2 4.341 4.341 0 0 1 3.462 1.652l-1.277 1.024a2.568 2.568 0 0 0-2.193-1.147 2.668 2.668 0 0 0 0 5.336 2.574 2.574 0 0 0 2.193-1.154l1.277 1.024a4.341 4.341 0 0 1-3.462 1.652 4.195 4.195 0 0 1-4.327-4.189" transform="translate(-110.263 -383.668)"/>
        <path id="Path_609" data-name="Path 609" class="cls-1" d="M316.374 447.054h-6.78a2.606 2.606 0 0 0 2.645 2.536 2.64 2.64 0 0 0 2.284-1.254l1.384.589a4.031 4.031 0 0 1-3.661 2.087 4.2 4.2 0 1 1-.039-8.408 4.095 4.095 0 0 1 4.181 4.113zm-6.681-1.162h4.944a2.383 2.383 0 0 0-2.422-1.934 2.536 2.536 0 0 0-2.523 1.934" transform="translate(-109.611 -383.67)"/>
        <path id="Path_610" data-name="Path 610" class="cls-1" d="M325.394 444.411h-2v6.789h-1.7v-6.788h-1.323v-1.306h1.323v-1.178a2.308 2.308 0 0 1 2.445-2.622 4.483 4.483 0 0 1 1.238.192v1.4a2.478 2.478 0 0 0-.855-.175c-.688 0-1.125.428-1.125 1.261v1.124h2z" transform="translate(-108.474 -384.008)"/>
        <path id="Path_611" data-name="Path 611" class="cls-1" d="M325.358 446.742a4.329 4.329 0 1 1 4.327 4.2 4.2 4.2 0 0 1-4.327-4.2m6.995 0a2.648 2.648 0 1 0-.775 1.9 2.671 2.671 0 0 0 .775-1.9" transform="translate(-108.06 -383.602)"/>
        <path id="Path_612" data-name="Path 612" class="cls-1" d="M339.191 442.682v1.629c-1.65 0-2.759.6-2.759 2.393v4.15h-1.7v-8.1h1.659v1.446a3.277 3.277 0 0 1 2.8-1.514" transform="translate(-107.205 -383.662)"/>
        <path id="Path_613" data-name="Path 613" class="cls-1" d="M343.612 447.126a4.11 4.11 0 0 1 4-4.211 3.6 3.6 0 0 1 2.92 1.353l.008-4.823h1.7v11.74h-1.7v-1.178a3.6 3.6 0 0 1-2.92 1.339 4.113 4.113 0 0 1-4-4.22m7.032 0a2.668 2.668 0 1 0-2.66 2.7 2.625 2.625 0 0 0 2.66-2.7" transform="translate(-106.453 -383.994)"/>
        <path id="Path_614" data-name="Path 614" class="cls-1" d="M352.987 446.8a4.09 4.09 0 0 1 4-4.189 3.6 3.6 0 0 1 2.927 1.331v-1.178h1.7v8.094h-1.7v-1.178a3.6 3.6 0 0 1-2.919 1.331 4.106 4.106 0 0 1-4-4.212m7.032 0a2.668 2.668 0 1 0-2.659 2.7 2.624 2.624 0 0 0 2.659-2.7" transform="translate(-105.627 -383.669)"/>
        <path id="Path_615" data-name="Path 615" class="cls-1" d="M364.992 444.266v4.219a1.061 1.061 0 0 0 1.1 1.2h.88v1.368h-1.222a2.219 2.219 0 0 1-2.461-2.369v-4.418h-1.322v-1.308h1.322v-2.238h1.7v2.239h1.993v1.308z" transform="translate(-104.808 -383.863)"/>
        <path id="Path_616" data-name="Path 616" class="cls-1" d="M367.163 446.8a4.091 4.091 0 0 1 4-4.189 3.6 3.6 0 0 1 2.928 1.331v-1.178h1.7v8.094h-1.7v-1.178a3.6 3.6 0 0 1-2.92 1.331 4.107 4.107 0 0 1-4-4.212m7.033 0a2.668 2.668 0 1 0-2.66 2.7 2.625 2.625 0 0 0 2.66-2.7" transform="translate(-104.38 -383.669)"/>
        <path id="Path_617" data-name="Path 617" class="cls-1" d="m231.211 388.237-.008 17.285a17.43 17.43 0 1 0 6.895 13.886V388.24zm-10.544 42.038a10.869 10.869 0 1 1 10.868-10.869 10.869 10.869 0 0 1-10.868 10.869" transform="translate(-118.885 -388.237)"/>
        <path id="Path_618" data-name="Path 618" class="cls-1" d="M266.844 401.781v2.472a17.43 17.43 0 1 0-.013 27.767v2.574h6.956l.017-32.81zM256.3 429a10.869 10.869 0 1 1 10.868-10.869A10.869 10.869 0 0 1 256.3 429" transform="translate(-115.784 -387.331)"/>
        <path id="Path_619" data-name="Path 619" class="cls-1" d="M322.681 401.781v2.472a17.43 17.43 0 1 0-.013 27.767v2.575h6.956l.017-32.814zM312.136 429A10.869 10.869 0 1 1 323 418.13 10.869 10.869 0 0 1 312.136 429" transform="translate(-110.925 -387.331)"/>
        <path id="Path_620" data-name="Path 620" class="cls-1" d="M294.837 408.353v-5.3H286.8v-14.814h-6.957v14.814h-5.365v5.3h5.363l-.009 19.1a8.415 8.415 0 0 0 8.415 8.419h6.529v-5.514H291a4.209 4.209 0 0 1-4.209-4.21l.01-17.792z" transform="translate(-112.601 -388.237)"/>
        <path id="Path_621" data-name="Path 621" class="cls-1" d="M444.252 435.852h9.287l-16.112-17.895 14.922-16H442.9l-13.309 14.273-.014-27.991h-6.9l.023 47.614h6.9l-.008-16.271z" transform="translate(-100.54 -388.237)"/>
        <path id="Path_622" data-name="Path 622" class="cls-1" d="M404.006 400.7a17.431 17.431 0 1 0 17.435 17.433 17.43 17.43 0 0 0-17.435-17.433m0 28.3a10.869 10.869 0 1 1 10.868-10.869A10.869 10.869 0 0 1 404.006 429" transform="translate(-102.931 -387.331)"/>
        <path id="Path_623" data-name="Path 623" class="cls-1" d="M375.653 406.943v-5.231h-7.042l-.011 32.815h7.041s.009-14.208.009-17.857c0-4.906 3.113-8.672 11.055-8.672v-6.6a13.691 13.691 0 0 0-11.049 5.548" transform="translate(-104.337 -387.263)"/>
        <path id="Path_624" data-name="Path 624" class="cls-1" d="M493.916 406.943v-5.231h-7.042l-.013 32.815h7.039s.009-14.208.009-17.857c0-4.906 3.113-8.672 11.055-8.672v-6.6a13.691 13.691 0 0 0-11.049 5.548" transform="translate(-93.969 -387.263)"/>
        <path id="Path_625" data-name="Path 625" class="cls-1" d="M331.953 388.24v31.168a17.435 17.435 0 1 0 6.895-13.885l-.009-17.282zm6.561 31.166a10.869 10.869 0 1 1 10.869 10.868 10.869 10.869 0 0 1-10.869-10.868" transform="translate(-107.683 -388.237)"/>
        <path id="Path_626" data-name="Path 626" class="cls-1" d="M485.028 418.128a17.435 17.435 0 1 0-2.347 8.732l-6.129-2.577a10.864 10.864 0 0 1-19.772-5.126l28.213.014c.021-.345.034-.693.034-1.043M467.6 407.259a10.848 10.848 0 0 1 9.791 6.189H457.8a10.849 10.849 0 0 1 9.791-6.189" transform="translate(-97.723 -387.328)"/>
        <path id="Path_627" data-name="Path 627" class="cls-2" d="M150.679 411.009a11.472 11.472 0 1 0 16.066 2.258 11.472 11.472 0 0 0-16.066-2.258" transform="translate(-123.541 -386.602)"/>
        <path id="Path_628" data-name="Path 628" class="cls-2" d="M148.6 407.574a18.4 18.4 0 0 1 29.472 14.661l15.633-11.792.01.013v-22.219h-68.082V424.9z" transform="translate(-125.637 -388.237)"/>
        <path id="Path_629" data-name="Path 629" class="cls-2" d="M170.753 434.045a18.4 18.4 0 0 1-29.472-14.661l-15.633 11.793-.011-.013v22.246h68.084v-36.69z" transform="translate(-125.638 -386.32)"/>
    </g>
</svg>
